<mxfile host="Electron" agent="Mozilla/5.0 (Macintosh; Intel Mac OS X 10_15_7) AppleWebKit/537.36 (KHTML, like Gecko) draw.io/28.0.4 Chrome/138.0.7204.97 Electron/37.2.1 Safari/537.36" version="28.0.4">
  <diagram name="Page-1" id="EW90_VEgEiVQ8XwNo82x">
    <mxGraphModel dx="2128" dy="1003" grid="1" gridSize="10" guides="1" tooltips="1" connect="1" arrows="1" fold="1" page="1" pageScale="1" pageWidth="827" pageHeight="1169" math="0" shadow="0">
      <root>
        <mxCell id="0" />
        <mxCell id="1" parent="0" />
        <mxCell id="g-Tl-W-8UnKB1kIEHvUw-1" value="&lt;font style=&quot;font-size: 25px;&quot;&gt;&lt;b style=&quot;&quot;&gt;Data Flow Diagram&lt;/b&gt;&lt;/font&gt;" style="text;html=1;align=center;verticalAlign=middle;resizable=0;points=[];autosize=1;strokeColor=#9673a6;fillColor=#e1d5e7;fontColor=#190033;" vertex="1" parent="1">
          <mxGeometry x="250" y="90" width="250" height="40" as="geometry" />
        </mxCell>
        <mxCell id="g-Tl-W-8UnKB1kIEHvUw-2" value="" style="rounded=1;whiteSpace=wrap;html=1;fillColor=none;" vertex="1" parent="1">
          <mxGeometry x="-130" y="190" width="140" height="380" as="geometry" />
        </mxCell>
        <mxCell id="g-Tl-W-8UnKB1kIEHvUw-4" value="&lt;font style=&quot;color: rgb(51, 0, 102);&quot;&gt;SOURCE&lt;/font&gt;" style="rounded=1;whiteSpace=wrap;html=1;fillColor=#b1ddf0;strokeColor=#10739e;fontStyle=1" vertex="1" parent="1">
          <mxGeometry x="-110" y="180" width="100" height="30" as="geometry" />
        </mxCell>
        <mxCell id="g-Tl-W-8UnKB1kIEHvUw-6" value="" style="image;aspect=fixed;html=1;points=[];align=center;fontSize=12;image=img/lib/azure2/general/Folder_Blank.svg;" vertex="1" parent="1">
          <mxGeometry x="-94.5" y="410" width="69" height="56.00000000000001" as="geometry" />
        </mxCell>
        <mxCell id="g-Tl-W-8UnKB1kIEHvUw-7" value="" style="image;aspect=fixed;html=1;points=[];align=center;fontSize=12;image=img/lib/azure2/general/Folder_Blank.svg;" vertex="1" parent="1">
          <mxGeometry x="-94.5" y="280" width="69" height="56.00000000000001" as="geometry" />
        </mxCell>
        <mxCell id="g-Tl-W-8UnKB1kIEHvUw-8" value="&lt;font style=&quot;font-size: 13px;&quot;&gt;&lt;b style=&quot;&quot;&gt;ERP&lt;/b&gt;&lt;/font&gt;" style="text;html=1;align=center;verticalAlign=middle;resizable=0;points=[];autosize=1;strokeColor=none;fillColor=none;" vertex="1" parent="1">
          <mxGeometry x="-85" y="470" width="50" height="30" as="geometry" />
        </mxCell>
        <mxCell id="g-Tl-W-8UnKB1kIEHvUw-10" value="&lt;font style=&quot;font-size: 13px;&quot;&gt;&lt;b style=&quot;&quot;&gt;CRM&lt;/b&gt;&lt;/font&gt;" style="text;html=1;align=center;verticalAlign=middle;resizable=0;points=[];autosize=1;strokeColor=none;fillColor=none;" vertex="1" parent="1">
          <mxGeometry x="-85" y="336" width="50" height="30" as="geometry" />
        </mxCell>
        <mxCell id="g-Tl-W-8UnKB1kIEHvUw-11" value="" style="rounded=1;whiteSpace=wrap;html=1;fillColor=none;" vertex="1" parent="1">
          <mxGeometry x="60" y="195" width="230" height="365" as="geometry" />
        </mxCell>
        <mxCell id="g-Tl-W-8UnKB1kIEHvUw-12" style="edgeStyle=orthogonalEdgeStyle;rounded=0;orthogonalLoop=1;jettySize=auto;html=1;exitX=0.5;exitY=1;exitDx=0;exitDy=0;" edge="1" parent="1" source="g-Tl-W-8UnKB1kIEHvUw-2" target="g-Tl-W-8UnKB1kIEHvUw-2">
          <mxGeometry relative="1" as="geometry" />
        </mxCell>
        <mxCell id="g-Tl-W-8UnKB1kIEHvUw-14" value="&lt;font color=&quot;#330066&quot;&gt;&lt;b&gt;Bronze&lt;/b&gt;&lt;/font&gt;" style="rounded=1;whiteSpace=wrap;html=1;fillColor=#fad7ac;strokeColor=#b46504;" vertex="1" parent="1">
          <mxGeometry x="125" y="180" width="100" height="30" as="geometry" />
        </mxCell>
        <mxCell id="g-Tl-W-8UnKB1kIEHvUw-15" value="&lt;font color=&quot;#330066&quot;&gt;&lt;b&gt;crm_sales_deatails&lt;/b&gt;&lt;/font&gt;" style="rounded=1;whiteSpace=wrap;html=1;fillColor=#fad7ac;strokeColor=#b46504;" vertex="1" parent="1">
          <mxGeometry x="90" y="250" width="170" height="30" as="geometry" />
        </mxCell>
        <mxCell id="g-Tl-W-8UnKB1kIEHvUw-16" value="&lt;font color=&quot;#330066&quot;&gt;&lt;b&gt;crm_cust_info&lt;/b&gt;&lt;/font&gt;" style="rounded=1;whiteSpace=wrap;html=1;fillColor=#fad7ac;strokeColor=#b46504;" vertex="1" parent="1">
          <mxGeometry x="90" y="288" width="170" height="30" as="geometry" />
        </mxCell>
        <mxCell id="g-Tl-W-8UnKB1kIEHvUw-17" value="&lt;font color=&quot;#330066&quot;&gt;&lt;b&gt;crm_prd_info&lt;/b&gt;&lt;/font&gt;" style="rounded=1;whiteSpace=wrap;html=1;fillColor=#fad7ac;strokeColor=#b46504;" vertex="1" parent="1">
          <mxGeometry x="90" y="325" width="170" height="30" as="geometry" />
        </mxCell>
        <mxCell id="g-Tl-W-8UnKB1kIEHvUw-18" value="&lt;font color=&quot;#330066&quot;&gt;&lt;b&gt;erp_cust_az12&lt;/b&gt;&lt;/font&gt;" style="rounded=1;whiteSpace=wrap;html=1;fillColor=#fad7ac;strokeColor=#b46504;" vertex="1" parent="1">
          <mxGeometry x="90" y="386" width="170" height="30" as="geometry" />
        </mxCell>
        <mxCell id="g-Tl-W-8UnKB1kIEHvUw-19" value="&lt;font color=&quot;#330066&quot;&gt;&lt;b&gt;erp_loc_a101&lt;/b&gt;&lt;/font&gt;" style="rounded=1;whiteSpace=wrap;html=1;fillColor=#fad7ac;strokeColor=#b46504;" vertex="1" parent="1">
          <mxGeometry x="90" y="431" width="170" height="30" as="geometry" />
        </mxCell>
        <mxCell id="g-Tl-W-8UnKB1kIEHvUw-20" value="&lt;font color=&quot;#330066&quot;&gt;&lt;b&gt;erp_px_cat_g1v2&lt;/b&gt;&lt;/font&gt;" style="rounded=1;whiteSpace=wrap;html=1;fillColor=#fad7ac;strokeColor=#b46504;" vertex="1" parent="1">
          <mxGeometry x="90" y="471" width="170" height="30" as="geometry" />
        </mxCell>
        <mxCell id="g-Tl-W-8UnKB1kIEHvUw-21" value="" style="endArrow=classic;html=1;rounded=0;exitX=1.016;exitY=0.499;exitDx=0;exitDy=0;exitPerimeter=0;strokeColor=#E1DDFF;fontStyle=1" edge="1" parent="1" source="g-Tl-W-8UnKB1kIEHvUw-7">
          <mxGeometry width="50" height="50" relative="1" as="geometry">
            <mxPoint x="-3" y="303" as="sourcePoint" />
            <mxPoint x="90" y="306" as="targetPoint" />
            <Array as="points">
              <mxPoint x="30" y="306" />
            </Array>
          </mxGeometry>
        </mxCell>
        <mxCell id="g-Tl-W-8UnKB1kIEHvUw-23" value="" style="edgeStyle=elbowEdgeStyle;elbow=horizontal;endArrow=classic;html=1;curved=0;rounded=0;endSize=8;startSize=8;strokeColor=#E1DDFF;fontStyle=1" edge="1" parent="1">
          <mxGeometry width="50" height="50" relative="1" as="geometry">
            <mxPoint x="40" y="310" as="sourcePoint" />
            <mxPoint x="90" y="268" as="targetPoint" />
            <Array as="points">
              <mxPoint x="40" y="288" />
            </Array>
          </mxGeometry>
        </mxCell>
        <mxCell id="g-Tl-W-8UnKB1kIEHvUw-24" value="" style="edgeStyle=elbowEdgeStyle;elbow=horizontal;endArrow=classic;html=1;curved=0;rounded=0;endSize=8;startSize=8;entryX=0;entryY=0.5;entryDx=0;entryDy=0;strokeColor=#E1DDFF;fontStyle=1" edge="1" parent="1" target="g-Tl-W-8UnKB1kIEHvUw-17">
          <mxGeometry width="50" height="50" relative="1" as="geometry">
            <mxPoint x="40" y="305" as="sourcePoint" />
            <mxPoint x="90" y="355" as="targetPoint" />
            <Array as="points">
              <mxPoint x="40" y="375" />
            </Array>
          </mxGeometry>
        </mxCell>
        <mxCell id="g-Tl-W-8UnKB1kIEHvUw-25" value="" style="endArrow=classic;html=1;rounded=0;entryX=0;entryY=0.5;entryDx=0;entryDy=0;strokeColor=#E1DDFF;fontStyle=1" edge="1" parent="1" target="g-Tl-W-8UnKB1kIEHvUw-19">
          <mxGeometry width="50" height="50" relative="1" as="geometry">
            <mxPoint x="-25.5" y="445.41" as="sourcePoint" />
            <mxPoint x="78.5" y="445.41" as="targetPoint" />
            <Array as="points">
              <mxPoint x="18.5" y="445.41" />
            </Array>
          </mxGeometry>
        </mxCell>
        <mxCell id="g-Tl-W-8UnKB1kIEHvUw-26" value="" style="edgeStyle=elbowEdgeStyle;elbow=horizontal;endArrow=classic;html=1;curved=0;rounded=0;endSize=8;startSize=8;strokeColor=#E1DDFF;fontStyle=1" edge="1" parent="1">
          <mxGeometry width="50" height="50" relative="1" as="geometry">
            <mxPoint x="40" y="442" as="sourcePoint" />
            <mxPoint x="90" y="400" as="targetPoint" />
            <Array as="points">
              <mxPoint x="40" y="420" />
            </Array>
          </mxGeometry>
        </mxCell>
        <mxCell id="g-Tl-W-8UnKB1kIEHvUw-27" value="" style="edgeStyle=elbowEdgeStyle;elbow=horizontal;endArrow=classic;html=1;curved=0;rounded=0;endSize=8;startSize=8;entryX=0;entryY=0.5;entryDx=0;entryDy=0;strokeColor=#E1DDFF;fontStyle=1" edge="1" parent="1">
          <mxGeometry width="50" height="50" relative="1" as="geometry">
            <mxPoint x="40" y="440" as="sourcePoint" />
            <mxPoint x="90" y="485" as="targetPoint" />
            <Array as="points">
              <mxPoint x="40" y="520" />
            </Array>
          </mxGeometry>
        </mxCell>
        <mxCell id="g-Tl-W-8UnKB1kIEHvUw-28" value="" style="rounded=1;whiteSpace=wrap;html=1;fillColor=none;strokeColor=#666666;gradientColor=#b3b3b3;" vertex="1" parent="1">
          <mxGeometry x="330" y="195" width="230" height="365" as="geometry" />
        </mxCell>
        <mxCell id="g-Tl-W-8UnKB1kIEHvUw-29" value="&lt;font color=&quot;#330066&quot;&gt;&lt;b&gt;Silver&lt;/b&gt;&lt;/font&gt;" style="rounded=1;whiteSpace=wrap;html=1;fillColor=#f5f5f5;strokeColor=#666666;gradientColor=#b3b3b3;" vertex="1" parent="1">
          <mxGeometry x="388" y="180" width="100" height="30" as="geometry" />
        </mxCell>
        <mxCell id="g-Tl-W-8UnKB1kIEHvUw-30" value="&lt;font color=&quot;#330066&quot;&gt;&lt;b&gt;crm_sales_deatails&lt;/b&gt;&lt;/font&gt;" style="rounded=1;whiteSpace=wrap;html=1;fillColor=#f5f5f5;strokeColor=#666666;gradientColor=#b3b3b3;" vertex="1" parent="1">
          <mxGeometry x="360" y="250" width="170" height="30" as="geometry" />
        </mxCell>
        <mxCell id="g-Tl-W-8UnKB1kIEHvUw-31" value="&lt;font color=&quot;#330066&quot;&gt;&lt;b&gt;crm_cust_info&lt;/b&gt;&lt;/font&gt;" style="rounded=1;whiteSpace=wrap;html=1;fillColor=#f5f5f5;strokeColor=#666666;gradientColor=#b3b3b3;" vertex="1" parent="1">
          <mxGeometry x="360" y="288" width="170" height="30" as="geometry" />
        </mxCell>
        <mxCell id="g-Tl-W-8UnKB1kIEHvUw-32" value="&lt;font color=&quot;#330066&quot;&gt;&lt;b&gt;crm_prd_info&lt;/b&gt;&lt;/font&gt;" style="rounded=1;whiteSpace=wrap;html=1;fillColor=#f5f5f5;strokeColor=#666666;gradientColor=#b3b3b3;" vertex="1" parent="1">
          <mxGeometry x="360" y="325" width="170" height="30" as="geometry" />
        </mxCell>
        <mxCell id="g-Tl-W-8UnKB1kIEHvUw-33" value="&lt;font color=&quot;#330066&quot;&gt;&lt;b&gt;erp_cust_az12&lt;/b&gt;&lt;/font&gt;" style="rounded=1;whiteSpace=wrap;html=1;fillColor=#f5f5f5;strokeColor=#666666;gradientColor=#b3b3b3;" vertex="1" parent="1">
          <mxGeometry x="360" y="386" width="170" height="30" as="geometry" />
        </mxCell>
        <mxCell id="g-Tl-W-8UnKB1kIEHvUw-34" value="&lt;font color=&quot;#330066&quot;&gt;&lt;b&gt;erp_loc_a101&lt;/b&gt;&lt;/font&gt;" style="rounded=1;whiteSpace=wrap;html=1;fillColor=#f5f5f5;strokeColor=#666666;gradientColor=#b3b3b3;" vertex="1" parent="1">
          <mxGeometry x="360" y="431" width="170" height="30" as="geometry" />
        </mxCell>
        <mxCell id="g-Tl-W-8UnKB1kIEHvUw-35" value="&lt;font color=&quot;#330066&quot;&gt;&lt;b&gt;erp_px_cat_g1v2&lt;/b&gt;&lt;/font&gt;" style="rounded=1;whiteSpace=wrap;html=1;fillColor=#f5f5f5;strokeColor=#666666;gradientColor=#b3b3b3;" vertex="1" parent="1">
          <mxGeometry x="360" y="471" width="170" height="30" as="geometry" />
        </mxCell>
        <mxCell id="g-Tl-W-8UnKB1kIEHvUw-36" value="" style="endArrow=classic;html=1;rounded=0;exitX=1;exitY=0.5;exitDx=0;exitDy=0;entryX=0;entryY=0.5;entryDx=0;entryDy=0;strokeColor=#E1DDFF;fontStyle=1" edge="1" parent="1">
          <mxGeometry width="50" height="50" relative="1" as="geometry">
            <mxPoint x="260" y="268" as="sourcePoint" />
            <mxPoint x="360" y="268" as="targetPoint" />
          </mxGeometry>
        </mxCell>
        <mxCell id="g-Tl-W-8UnKB1kIEHvUw-37" value="" style="endArrow=classic;html=1;rounded=0;exitX=1;exitY=0.5;exitDx=0;exitDy=0;entryX=0;entryY=0.5;entryDx=0;entryDy=0;strokeColor=#E1DDFF;fontStyle=1" edge="1" parent="1">
          <mxGeometry width="50" height="50" relative="1" as="geometry">
            <mxPoint x="260" y="307.41" as="sourcePoint" />
            <mxPoint x="360" y="307.41" as="targetPoint" />
          </mxGeometry>
        </mxCell>
        <mxCell id="g-Tl-W-8UnKB1kIEHvUw-38" value="" style="endArrow=classic;html=1;rounded=0;exitX=1;exitY=0.5;exitDx=0;exitDy=0;entryX=0;entryY=0.5;entryDx=0;entryDy=0;strokeColor=#E1DDFF;fontStyle=1" edge="1" parent="1">
          <mxGeometry width="50" height="50" relative="1" as="geometry">
            <mxPoint x="260" y="339.40999999999997" as="sourcePoint" />
            <mxPoint x="360" y="339.40999999999997" as="targetPoint" />
          </mxGeometry>
        </mxCell>
        <mxCell id="g-Tl-W-8UnKB1kIEHvUw-39" value="" style="endArrow=classic;html=1;rounded=0;exitX=1;exitY=0.5;exitDx=0;exitDy=0;entryX=0;entryY=0.5;entryDx=0;entryDy=0;strokeColor=#E1DDFF;fontStyle=1" edge="1" parent="1">
          <mxGeometry width="50" height="50" relative="1" as="geometry">
            <mxPoint x="260" y="404.71" as="sourcePoint" />
            <mxPoint x="360" y="404.71" as="targetPoint" />
          </mxGeometry>
        </mxCell>
        <mxCell id="g-Tl-W-8UnKB1kIEHvUw-40" value="" style="endArrow=classic;html=1;rounded=0;exitX=1;exitY=0.5;exitDx=0;exitDy=0;entryX=0;entryY=0.5;entryDx=0;entryDy=0;strokeColor=#E1DDFF;fontStyle=1" edge="1" parent="1">
          <mxGeometry width="50" height="50" relative="1" as="geometry">
            <mxPoint x="260" y="449.12" as="sourcePoint" />
            <mxPoint x="360" y="449.12" as="targetPoint" />
          </mxGeometry>
        </mxCell>
        <mxCell id="g-Tl-W-8UnKB1kIEHvUw-41" value="" style="endArrow=classic;html=1;rounded=0;exitX=1;exitY=0.5;exitDx=0;exitDy=0;entryX=0;entryY=0.5;entryDx=0;entryDy=0;strokeColor=#E1DDFF;fontStyle=1" edge="1" parent="1">
          <mxGeometry width="50" height="50" relative="1" as="geometry">
            <mxPoint x="260" y="484.11999999999995" as="sourcePoint" />
            <mxPoint x="360" y="484.11999999999995" as="targetPoint" />
          </mxGeometry>
        </mxCell>
        <mxCell id="g-Tl-W-8UnKB1kIEHvUw-42" value="" style="rounded=1;whiteSpace=wrap;html=1;fillColor=none;strokeColor=#d6b656;gradientColor=#ffd966;" vertex="1" parent="1">
          <mxGeometry x="590" y="195" width="230" height="365" as="geometry" />
        </mxCell>
        <mxCell id="g-Tl-W-8UnKB1kIEHvUw-43" value="&lt;font color=&quot;#330066&quot;&gt;&lt;b&gt;gold&lt;/b&gt;&lt;/font&gt;" style="rounded=1;whiteSpace=wrap;html=1;fillColor=#fff2cc;strokeColor=#d6b656;gradientColor=#ffd966;" vertex="1" parent="1">
          <mxGeometry x="648" y="180" width="100" height="30" as="geometry" />
        </mxCell>
        <mxCell id="g-Tl-W-8UnKB1kIEHvUw-44" value="&lt;font color=&quot;#330066&quot;&gt;&lt;b&gt;fact_sales&lt;/b&gt;&lt;/font&gt;" style="rounded=1;whiteSpace=wrap;html=1;fillColor=#fff2cc;strokeColor=#d6b656;gradientColor=#ffd966;" vertex="1" parent="1">
          <mxGeometry x="620" y="250" width="170" height="30" as="geometry" />
        </mxCell>
        <mxCell id="g-Tl-W-8UnKB1kIEHvUw-45" value="&lt;font color=&quot;#330066&quot;&gt;&lt;b&gt;dim_customers&lt;/b&gt;&lt;/font&gt;" style="rounded=1;whiteSpace=wrap;html=1;fillColor=#fff2cc;strokeColor=#d6b656;gradientColor=#ffd966;" vertex="1" parent="1">
          <mxGeometry x="620" y="338" width="170" height="30" as="geometry" />
        </mxCell>
        <mxCell id="g-Tl-W-8UnKB1kIEHvUw-46" value="&lt;font color=&quot;#330066&quot;&gt;&lt;b&gt;dim_products&lt;/b&gt;&lt;/font&gt;" style="rounded=1;whiteSpace=wrap;html=1;fillColor=#fff2cc;strokeColor=#d6b656;gradientColor=#ffd966;" vertex="1" parent="1">
          <mxGeometry x="620" y="426" width="170" height="30" as="geometry" />
        </mxCell>
        <mxCell id="g-Tl-W-8UnKB1kIEHvUw-47" value="" style="endArrow=classic;html=1;rounded=0;exitX=1;exitY=0.5;exitDx=0;exitDy=0;entryX=0;entryY=0.5;entryDx=0;entryDy=0;" edge="1" parent="1" source="g-Tl-W-8UnKB1kIEHvUw-30" target="g-Tl-W-8UnKB1kIEHvUw-44">
          <mxGeometry width="50" height="50" relative="1" as="geometry">
            <mxPoint x="500" y="790" as="sourcePoint" />
            <mxPoint x="550" y="740" as="targetPoint" />
          </mxGeometry>
        </mxCell>
        <mxCell id="g-Tl-W-8UnKB1kIEHvUw-48" value="" style="endArrow=classic;html=1;rounded=0;exitX=1;exitY=0.5;exitDx=0;exitDy=0;entryX=0;entryY=0.5;entryDx=0;entryDy=0;" edge="1" parent="1" source="g-Tl-W-8UnKB1kIEHvUw-33" target="g-Tl-W-8UnKB1kIEHvUw-45">
          <mxGeometry width="50" height="50" relative="1" as="geometry">
            <mxPoint x="570" y="770" as="sourcePoint" />
            <mxPoint x="620" y="720" as="targetPoint" />
          </mxGeometry>
        </mxCell>
        <mxCell id="g-Tl-W-8UnKB1kIEHvUw-49" value="" style="endArrow=classic;html=1;rounded=0;exitX=1;exitY=0.5;exitDx=0;exitDy=0;entryX=0;entryY=0.5;entryDx=0;entryDy=0;" edge="1" parent="1" target="g-Tl-W-8UnKB1kIEHvUw-45">
          <mxGeometry width="50" height="50" relative="1" as="geometry">
            <mxPoint x="530" y="448" as="sourcePoint" />
            <mxPoint x="620" y="400" as="targetPoint" />
          </mxGeometry>
        </mxCell>
        <mxCell id="g-Tl-W-8UnKB1kIEHvUw-50" value="" style="endArrow=classic;html=1;rounded=0;exitX=1;exitY=0.5;exitDx=0;exitDy=0;entryX=0;entryY=0.5;entryDx=0;entryDy=0;" edge="1" parent="1" source="g-Tl-W-8UnKB1kIEHvUw-31" target="g-Tl-W-8UnKB1kIEHvUw-45">
          <mxGeometry width="50" height="50" relative="1" as="geometry">
            <mxPoint x="580" y="748" as="sourcePoint" />
            <mxPoint x="670" y="700" as="targetPoint" />
          </mxGeometry>
        </mxCell>
        <mxCell id="g-Tl-W-8UnKB1kIEHvUw-51" value="" style="endArrow=classic;html=1;rounded=0;exitX=1;exitY=0.5;exitDx=0;exitDy=0;entryX=0;entryY=0.5;entryDx=0;entryDy=0;" edge="1" parent="1" source="g-Tl-W-8UnKB1kIEHvUw-35" target="g-Tl-W-8UnKB1kIEHvUw-46">
          <mxGeometry width="50" height="50" relative="1" as="geometry">
            <mxPoint x="480" y="800" as="sourcePoint" />
            <mxPoint x="570" y="850" as="targetPoint" />
          </mxGeometry>
        </mxCell>
        <mxCell id="g-Tl-W-8UnKB1kIEHvUw-52" value="" style="endArrow=classic;html=1;rounded=0;exitX=1;exitY=0.5;exitDx=0;exitDy=0;entryX=0;entryY=0.5;entryDx=0;entryDy=0;" edge="1" parent="1" source="g-Tl-W-8UnKB1kIEHvUw-32" target="g-Tl-W-8UnKB1kIEHvUw-46">
          <mxGeometry width="50" height="50" relative="1" as="geometry">
            <mxPoint x="580" y="750" as="sourcePoint" />
            <mxPoint x="670" y="800" as="targetPoint" />
          </mxGeometry>
        </mxCell>
      </root>
    </mxGraphModel>
  </diagram>
</mxfile>
